<svg height="512pt" viewBox="-118 0 512 512.00001" width="512pt" xmlns="http://www.w3.org/2000/svg"><path d="m228.59375 46.359375c-23.777344-31.121094-58.722656-46.3945312-103.851562-45.503906l-2.511719.054687 1.824219 1.726563c.527343.496093.917968 1.011719 1.195312 1.574219 1.335938 2.699218 4.851562 5.960937 9.300781 10.089843 8.972657 8.324219 21.261719 19.730469 20.566407 32.371094-.226563 4.125 1.761718 7.808594 5.183593 9.613281 10.941407 5.765625 37.761719 23.226563 50.414063 60.746094 9.082031 26.933594 3.105468 57.421875-3.8125 92.726562-8.101563 41.332032-17.285156 88.175782-3.441406 140.246094 1.113281-.273437 1.796874-1.382812 1.558593-2.507812-10.171875-48.421875 7.832031-90.644532 25.253907-131.496094 23.566406-55.261719 45.820312-107.457031-1.679688-169.640625zm0 0" fill="#ffd500"/><path d="m214.089844 175.414062c30.238281-111.15625-22.242188-155.652343-46.746094-169.832031-12.988281-3.449219-27.199219-5.03125-42.601562-4.726562l-2.511719.054687 1.824219 1.726563c.527343.496093.917968 1.011719 1.195312 1.574219 1.335938 2.699218 4.851562 5.960937 9.300781 10.089843 8.972657 8.324219 21.265625 19.730469 20.566407 32.371094-.226563 4.125 1.761718 7.808594 5.183593 9.613281 10.945313 5.765625 37.761719 23.226563 50.414063 60.746094 6.652344 19.730469 5.222656 41.371094 1.265625 65.414062.746093-2.277343 1.453125-4.617187 2.109375-7.03125zm0 0" fill="#fbc700"/><path d="m42.410156 17.859375c-3.085937 1.167969-5.28125 3.804687-5.863281 7.054687-.585937 3.265626.554687 6.515626 3.058594 8.695313l43.234375 37.679687 19.21875-15.859374c2.902344-2.394532 5.015625-5.570313 6.117187-9.1875 1.03125-3.382813.066407-7.785157-1.046875-12.882813-2.261718-10.335937-4.820312-22.046875 7.671875-30.121094l3.394531-2.191406-4.03125.300781c-28.917968 2.164063-54.980468 10.171875-71.753906 16.511719zm0 0" fill="#fbc700"/><path d="m211.691406 116.703125c-12.660156-37.542969-39.132812-55.125-50.910156-61.328125-3.167969-1.671875-4.832031-5.070312-4.632812-8.644531 1.058593-19.203125-26.015626-34.976563-29.976563-42.976563-1.660156-3.359375-5.820313-4.730468-9.148437-3.011718-23.566407 12.191406-6.761719 35.109374-9.832032 45.203124-1.039062 3.40625-3.042968 6.425782-5.789062 8.691407l-23.160156 19.109375c-4.667969 3.851562-8.523438 8.589844-11.351563 13.9375l-6.320313 11.957031c-2.550781 4.824219-5.9375 9.148437-10.003906 12.78125l-33.710937 30.085937c-5.921875 5.289063-6.855469 14.210938-2.152344 20.609376l20.484375 23.144531c4.542969 6.179687 17.523438 7.949219 19.761719 4.984375 16.113281-21.316406 32.742187-27.0625 45.03125-28.113282 7.019531-.601562 14.5625-6.015624 19.402343-10.175781 2.128907-1.832031 5.429688-.125 5.132813 2.667969-4.214844 39.570312-74.230469 68.527344-87.691406 142.070312-10.0625 54.992188 27.570312 84.242188 27.570312 84.242188h151.449219c-49.335938-110.535156 18.058594-199.371094-4.152344-265.234375zm0 0" fill="#ffe55a"/><path d="m54.949219 191.246094c2.539062-3.359375 5.089843-6.328125 7.632812-8.953125l-16.972656-19.175781c-4.703125-6.398438-3.769531-15.324219 2.15625-20.613282l33.707031-30.085937c4.070313-3.632813 7.457032-7.957031 10.003906-12.777344l6.320313-11.957031c2.828125-5.351563 6.6875-10.085938 11.351563-13.9375l23.160156-19.113282c2.746094-2.265624 4.753906-5.285156 5.789062-8.691406 2.136719-7.019531-5.34375-20.25-2.15625-31.757812-4.558594-4.230469-8.449218-7.761719-9.769531-10.429688-1.660156-3.359375-5.820313-4.730468-9.148437-3.011718-23.566407 12.191406-6.761719 35.109374-9.832032 45.203124-1.039062 3.40625-3.042968 6.425782-5.789062 8.691407l-23.160156 19.109375c-4.667969 3.851562-8.523438 8.589844-11.351563 13.9375l-6.320313 11.957031c-2.550781 4.824219-5.9375 9.148437-10.003906 12.78125l-33.710937 30.085937c-5.921875 5.289063-6.855469 14.210938-2.152344 20.609376l20.484375 23.144531c4.542969 6.179687 17.523438 7.945312 19.761719 4.984375zm0 0" fill="#ffd500"/><path d="m146.3125 178.023438c16.21875-21.507813-23.300781-25.375-23.300781-25.375.96875.574218 1.644531 1.652343 1.503906 2.976562-.816406 7.640625-4.101563 14.671875-8.238281 21.074219-19.804688 30.640625-68.464844 60.964843-79.453125 120.996093-10.0625 54.996094 27.570312 84.246094 27.570312 84.246094h30.90625s-37.632812-29.25-27.570312-84.246094c10.832031-59.167968 58.257812-89.476562 78.582031-119.671874zm0 0" fill="#ffd500"/><path d="m240.414062 412.273438v-15.617188c0-9.226562-7.550781-16.777344-16.777343-16.777344h-171.957031c-9.226563 0-16.773438 7.550782-16.773438 16.777344v15.617188zm0 0" fill="#60b8ff"/><path d="m84.390625 379.878906h-32.710937c-9.226563 0-16.773438 7.550782-16.773438 16.777344v15.617188h32.707031v-15.617188c0-9.226562 7.550781-16.777344 16.777344-16.777344zm0 0" fill="#22a7ff"/><path d="m243.042969 410.214844h-210.769531c-11.308594 0-20.5625 9.253906-20.5625 20.5625v55.007812h251.894531v-55.007812c0-11.308594-9.253907-20.5625-20.5625-20.5625zm0 0" fill="#22a7ff"/><path d="m64.984375 410.214844h-32.710937c-11.308594 0-20.5625 9.253906-20.5625 20.5625v55.007812h32.710937v-55.007812c0-11.308594 9.253906-20.5625 20.5625-20.5625zm0 0" fill="#0094fd"/><path d="m261.179688 483.726562h-247.042969c-7.808594 0-14.136719 6.328126-14.136719 14.136719 0 7.808594 6.328125 14.136719 14.136719 14.136719h247.042969c7.808593 0 14.136718-6.328125 14.136718-14.136719 0-7.808593-6.328125-14.136719-14.136718-14.136719zm0 0" fill="#0094fd"/><path d="m261.179688 494.484375h-247.042969c-4.496094 0-8.496094-2.105469-11.085938-5.378906-1.90625 2.410156-3.050781 5.449219-3.050781 8.757812 0 7.808594 6.328125 14.136719 14.136719 14.136719h247.042969c7.808593 0 14.136718-6.328125 14.136718-14.136719 0-3.308593-1.144531-6.347656-3.050781-8.757812-2.589844 3.273437-6.585937 5.378906-11.085937 5.378906zm0 0" fill="#0083fd"/></svg>