<svg version="1.0" xmlns="http://www.w3.org/2000/svg" width="70" height="80" viewBox="0 0 700 800"><g fill="#fff"><path d="M180 710c0-36 20-104 34-112 15-10 248-10 263 0 12 8 40 118 32 126-2 2-77 6-167 8l-162 3v-25z"/><path d="M154 546c-30-30-34-41-34-84 0-87 44-117 233-158l87-19v-32c0-23-5-33-15-33-9 0-15 9-15 25 0 20-5 25-25 25s-25-5-25-25c0-33-37-35-42-2-2 16-11 23-30 25-24 3-28 0-28-23 0-38-24-26-28 13-3 31-5 32-48 32-47 0-49-3-38-60 6-28 16-37 85-70 43-21 92-43 109-48 20-8 30-18 30-31 0-63 130 40 159 126 7 21 15 112 18 206l6 167H452l-23-97c-13-54-24-99-25-101s-21 2-45 8c-62 17-102 62-118 133-15 69-35 75-87 23z"/></g></svg>