<svg xmlns="http://www.w3.org/2000/svg" viewBox="0 0 90 71.73">
    
    <!-- <path d="M5.06 48.43c3.36-3.16 7.42-8.89 11.61-12.23a21.44 21.44 0 001.83-1.76q.41-.63.75-1.23c3.62-6.34 1.51-6.22 2.36-7.12.23-.25.44-.48.65-.69 2.85-5.32 7.87-5.93 9.19-8.69 1.44-3 2.68-3.77 8.74-6.25a11.51 11.51 0 005.52-5.66c.2-.29-.47-2.36-2-2-3.45.9-8.37 3.53-9.17 2.49s6.33-4 5.39-4a2.84 2.84 0 00-2-1.2c-3.8-.31-14.28.62-25.47 14.79a53.53 53.53 0 00-6.41 10.21c-.78 1.71 6.44-5.75 7.52-5.47 2.21.57-1.14 3.28-4.74 6.85-2.76 2.74-5.59 6.08-6.73 8.8 2.57 3.32 9.41-5.92 10.75-5.73a1.34 1.34 0 010 2 91.34 91.34 0 00-8.61 8C3.07 40.92-.86 45.12.17 50.93c.41 2.32 1.59.98 4.89-2.5z"
          fill="#fff"/> -->
    <path d="M40.16 1.3C40.11.39 38.65.08 37.5 0s-.29.21 0 .38c.89.6 0 1.86-1 2.44-1.53.9-2.5 2-2.14 2.5s1.11.26 2.2-.09c-1.36-.81 3.66-2.68 3.6-3.93z"
          fill="#c0bfbf"/>
    <path d="M45.66 52.9a53.3 53.3 0 005.84-11.82c.17-.52 0-.53-.58-.37C46.54 42 39 46.54 44.68 53.19c.14.17.82-.04.98-.29z"
          fill="#e63331"/>
    <path d="M47 4.69a2.54 2.54 0 00-1.45-1.59c-1.06-.45-1.13-.46-.47.14s.22 2.3-2 3.65c-4.64 2.8-13.49 5.43-12.94.09.4-4-1.08-4.65-2.85-3.84-7.22 3.29-1.6 6.46-7.79 6.6-.9 0-2.22.64-1.89 2 .52 2.15 1.75 5.15 1.68 7-.13 3.82-3.71 5.78-3 7.05s2.51-.95 3.89.88c2.7 3.56-3.78 9.9-5.53 11.17A22.67 22.67 0 0020.73 32c2.54-3.49 4.31-6 4.32-5.94 3.46 20.43-6.8 35.77-5.34 35.86 1.67.11 3.34.15 5 .16h.07c1.68 0 3.35 0 5-.16 1.47-.09 2.93-.13 4.39-.23 1.11-.08 2.5-.2 2.41-1.29 0-.41-1.51-.79-1.63-1.19a2.62 2.62 0 01-.17-.59c0-1.11 2.22-1.38 2.2-2.48a2.71 2.71 0 00-.72-1.76 32.84 32.84 0 00-2.82-2.56 13.87 13.87 0 01-1.67-2 31 31 0 01-2.58-10.33c-.19-3.11-.38-5.67-.36-8.8a5.23 5.23 0 000-.68s0-4 .95-4.91a2.11 2.11 0 00.28-.37c1-.09 1.34-5.1 1.34-6.22 0-.16.12 2.08.11.29 0-.75 1-1.17 1-1.26 2.19-5.33 8.3-6.83 10.74-8.48C46.34 7 47.37 5.8 47 4.69zM12.85 29.54c-1.89-.64-5 3.92-7.15 4.89-1 .45-2.48-.52-1.52-2.29 2.73-5.06 11.2-10.58 10.12-12.42-.94-1.6-8.28 4.34-8.36 5.55-.16.57 1.13-.19 1.48-.16 1.07.09 1 .91.07 1.93C3.86 31.2.67 35 2 36.42c2.81 3.09 7.25-4.86 11.21-5.42.18-.87-.15-1.39-.36-1.46z"
          fill="#c0bfbf"/>
    <path d="M40.94 46.26c1.64-8.07 10-9.4 12.49-13.81a14 14 0 001.65-6.79c0-.49-.13-1.16-.4-.79-1.93 2.71-11.92 13.37-33.28 21.75C10.79 50.78 2.72 60.45 4.91 65.19c1.16 2.5 2.89-2.58 5.53-4.94 2.83-2.54 2.72-.41 2.72-.41a17.65 17.65 0 00-3.93 5.62c-.64 1.4-.87 3.13 1.63 4.47s12 5.57 25.69-6.38c1.9-1.67 6.21-6.42 5.19-10.3-.66-2.52-1.47-3.71-.8-6.99z"
          fill="#e63331"/>
    <path d="M52.79 13.74a33.17 33.17 0 00-4.11 3.49c-5.59 5.24-9 3.93-7.91 2.29 1.38-2.07 9.53-6.87 6.81-8-4.12-1.76-15.45 4.68-16.08 7.39-2.39 10.38-4.6 3.49-6.87 7s-7.56 9.59-8.76 10.43C-4.47 50.58 3.75 63.11 3.75 63.11a13.36 13.36 0 01.61-3.68C6.1 54 12.28 48.08 32.12 39.72c6.56-2.77 17.34-10.66 21.07-17 2.15-3.72.6-9.58-.4-8.98zM40.54 27.46c-.61-1.07 5.16-3.07 9.34-6.59 1.04 1.43-7.53 9.79-9.34 6.59z"
          fill="#6fc4ef"/>
    <path d="M38.53 56.16a2.73 2.73 0 00-.71-1.73 30.15 30.15 0 00-2.77-2.51 13.83 13.83 0 01-1.64-2 30.52 30.52 0 01-2.54-10.15c-.18-3.07-.37-5.58-.35-8.65a4.93 4.93 0 000-.67s0-3.93.93-4.83a2 2 0 00.27-.36c1-.09 1.72-.54 1.72-1.64A1.42 1.42 0 0032.05 22a1.35 1.35 0 00.33-.89 1.27 1.27 0 00-1.22-1.31 14.46 14.46 0 01.27-2.9 48.15 48.15 0 011.91-5.18s.14-.75-1.51-.89c-.93-.08-2.43-.11-3.56-.13a1.85 1.85 0 00-.62-1.34c-.09-.54-.69-.81-.29-1.07s1.15.34 1.28.26c.65-.42.34-2.49.14-2.56s-1.14.42-1.41.31.35-1.4.32-1.57-.62-.34-1.2-.35c-.58 0-1.14.1-1.19.35s.59 1.47.32 1.57-1.29-.3-1.43-.3-.52 2.14.14 2.56c.13.08.87-.52 1.27-.26s-.19.53-.28 1.07a1.86 1.86 0 00-.63 1.34c-1.13 0-2.63 0-3.56.13-1.65.14-1.51.89-1.51.89s1.77 4.6 2 5.63a16.16 16.16 0 01.17 2.45 1.28 1.28 0 00-1.22 1.31 1.31 1.31 0 00.34.89 1.42 1.42 0 00-1.37 1.6c0 1.1.74 1.55 1.72 1.64a2 2 0 00.27.36c.9.9.93 4.83.93 4.83v.67c0 3.07-.17 5.58-.36 8.65a30 30 0 01-2.54 10.15 13.83 13.83 0 01-1.64 2 31.52 31.52 0 00-2.77 2.51 2.67 2.67 0 00-.7 1.73c0 1.09 2.19 1.35 2.15 2.44a2.1 2.1 0 01-.16.58c-.12.39-1.57.77-1.6 1.16-.09 1.08 1.27 1.2 2.36 1.28 1.44.1 2.88.13 4.32.22 1.64.11 3.29.15 4.93.16h.08c1.64 0 3.29 0 4.93-.16 1.44-.09 2.88-.12 4.32-.22 1.09-.08 2.45-.2 2.37-1.28 0-.39-1.49-.77-1.61-1.16a3.14 3.14 0 01-.16-.58c0-1.09 2.18-1.35 2.16-2.44"
          fill="#fff"/>
</svg>
