<?xml version="1.0" encoding="iso-8859-1"?>
<!-- Generator: Adobe Illustrator 19.0.0, SVG Export Plug-In . SVG Version: 6.00 Build 0)  -->
<svg version="1.1" id="Capa_1" xmlns="http://www.w3.org/2000/svg" xmlns:xlink="http://www.w3.org/1999/xlink" x="0px" y="0px"
	 viewBox="0 0 512.896 512.896" style="enable-background:new 0 0 512.896 512.896;" xml:space="preserve">
<path style="fill:#E95454;" d="M512.896,114.036l-35.456,124.88l35.456,70.912c0,0-32.368,55.504-206.592,47.792l79.584-121.424
	l-0.96-75.952C428.864,158.788,471.456,142.66,512.896,114.036z"/>
<path style="fill:#CD494C;" d="M306.32,357.62c0,0,84.8-38.544,106.384-67.84L359.52,183.396l-53.184,15.424v41.984V357.62H306.32z"
	/>
<path style="fill:#ED6362;" d="M50.384,66.244c0,0,191.168-89.424,362.304,15.424v208.128c0,0-67.728-66.32-280.48-32.416
	L50.384,66.244z"/>
<path style="fill:#EF7374;" d="M316.464,155.812h-94.688c-7.312,0-13.392-6.08-13.392-13.392l0.16-0.928v-0.16
	c-0.16-7.792,6.224-14.176,14.016-14.176h65.568c8.72,0,16.352-6.384,16.976-15.104c0.304-9.184-6.848-16.816-16.048-16.816H219.6
	c-7.792,0-13.392-6.384-13.392-14.176c0,0,0,0,0-0.16s0-0.16,0-0.16c0-7.632,5.6-14.176,13.392-14.176h40.336
	c8.56,0,16.192-6.384,16.672-14.944c0.464-9.344-6.848-16.816-15.888-16.816h-94.528c-68.544,9.36-115.808,31.44-115.808,31.44
	l77.536,181.152h134.176c8.56-0.16,15.424-7.168,15.424-15.888s-7.168-15.888-15.888-15.888h-45.168
	c-7.472,0-13.552-6.08-13.392-13.392v-1.248c-0.464-7.168,5.296-13.392,12.608-13.392h99.824c8.72,0,16.352-6.384,16.976-14.96
	C332.816,163.444,325.648,155.812,316.464,155.812z"/>
<path style="fill:#FFCC5B;" d="M223.088,508.42L223.088,508.42c-8.288,3.36-17.744-0.624-21.104-8.912L24.432,58.66
	c-3.36-8.288,0.624-17.744,8.912-21.104l0,0c8.288-3.36,17.744,0.624,21.104,8.912L232,487.332
	C235.376,495.604,231.376,505.06,223.088,508.42z"/>
<circle style="fill:#FDBC4B;" cx="31.52" cy="34.804" r="31.52"/>
<g>
</g>
<g>
</g>
<g>
</g>
<g>
</g>
<g>
</g>
<g>
</g>
<g>
</g>
<g>
</g>
<g>
</g>
<g>
</g>
<g>
</g>
<g>
</g>
<g>
</g>
<g>
</g>
<g>
</g>
</svg>
