<?xml version="1.0" encoding="iso-8859-1"?>
<!-- Generator: Adobe Illustrator 19.0.0, SVG Export Plug-In . SVG Version: 6.00 Build 0)  -->
<svg version="1.1" id="Capa_1" xmlns="http://www.w3.org/2000/svg" xmlns:xlink="http://www.w3.org/1999/xlink" x="0px" y="0px"
	 viewBox="0 0 512.001 512.001" style="enable-background:new 0 0 512.001 512.001;" xml:space="preserve">
<path style="fill:#DE513C;" d="M382.164,0.001H129.836c-8.284,0-15,6.716-15,15v90c0,8.284,6.716,15,15,15h252.328
	c8.284,0,15-6.716,15-15v-90C397.164,6.716,390.448,0.001,382.164,0.001z"/>
<g>
	<path style="fill:#FC6249;" d="M256.001,0.001H129.836c-8.284,0-15,6.716-15,15v90c0,8.284,6.716,15,15,15h126.165V0.001z"/>
	<path style="fill:#FC6249;" d="M463.177,39.026L388.914,1.605c-3.704-1.865-8.013-2.115-11.908-0.69
		c-3.894,1.426-7.024,4.401-8.646,8.217L256,273.45L143.641,9.132c-1.622-3.816-4.753-6.791-8.646-8.217
		c-3.896-1.426-8.206-1.177-11.908,0.69l-74.263,37.42l0,0C25.925,50.565,16.329,77.876,26.979,101.2l105.457,230.997h83.536
		h163.592l105.457-230.996C495.671,77.876,486.076,50.565,463.177,39.026z"/>
</g>
<path style="fill:#FC8774;" d="M256,273.45L143.641,9.132c-1.622-3.816-4.753-6.791-8.646-8.217
	c-3.896-1.426-8.206-1.177-11.908,0.69l-74.263,37.42l0,0C25.925,50.565,16.329,77.876,26.979,101.2l105.457,230.997H256V273.45z"/>
<path style="fill:#FFCB47;" d="M256,236.456c-75.968,0-137.772,61.804-137.772,137.772S180.032,512.001,256,512.001
	s137.772-61.805,137.772-137.772S331.968,236.456,256,236.456z"/>
<path style="fill:#FFE369;" d="M256,236.456c-75.968,0-137.772,61.804-137.772,137.772S180.032,512.001,256,512.001V236.456z"/>
<path style="fill:#DB9641;" d="M268.253,322.185l5.331,16.409c1.725,5.308,6.671,8.902,12.252,8.902h17.253
	c12.48,0,17.669,15.97,7.572,23.306l-13.958,10.141c-4.515,3.281-6.405,9.096-4.68,14.404l5.331,16.409
	c3.857,11.869-9.728,21.739-19.825,14.404l-13.958-10.141c-4.515-3.281-10.63-3.281-15.145,0l-13.958,10.141
	c-10.097,7.336-23.681-2.534-19.825-14.404l5.331-16.409c1.725-5.308-0.165-11.123-4.68-14.404l-13.958-10.141
	c-10.097-7.336-4.908-23.306,7.572-23.306h17.253c5.581,0,10.528-3.594,12.252-8.902l5.331-16.409
	C247.604,310.316,264.396,310.316,268.253,322.185z"/>
<path style="fill:#FFCB47;" d="M256.001,413.556c-2.658,0-5.315,0.82-7.573,2.46l-13.958,10.141
	c-10.097,7.336-23.681-2.534-19.825-14.404l5.331-16.409c1.725-5.308-0.165-11.123-4.68-14.404l-13.958-10.141
	c-10.097-7.336-4.908-23.306,7.572-23.306h17.253c5.581,0,10.528-3.594,12.252-8.902l5.331-16.409
	c1.928-5.935,7.09-8.902,12.252-8.902L256.001,413.556z"/>
<g>
</g>
<g>
</g>
<g>
</g>
<g>
</g>
<g>
</g>
<g>
</g>
<g>
</g>
<g>
</g>
<g>
</g>
<g>
</g>
<g>
</g>
<g>
</g>
<g>
</g>
<g>
</g>
<g>
</g>
</svg>
