<svg height="512pt" viewBox="-37 0 512 512.001" width="512pt" xmlns="http://www.w3.org/2000/svg"><path d="m344.871094 256 6.824218 110.035156c.808594 13.054688 6.285157 25.378906 15.433594 34.726563l16.734375 17.097656c9.960938 10.175781 15.539063 23.851563 15.539063 38.09375h6.058594c13.386718 0 24.238281 10.851563 24.238281 24.238281 0 13.382813-10.851563 24.234375-24.238281 24.234375h-175.714844c-13.386719 0-24.238282-10.851562-24.238282-24.234375 0-13.386718 10.851563-24.238281 24.238282-24.238281h6.058594c0-14.242187 5.578124-27.917969 15.539062-38.09375l16.734375-17.097656c9.144531-9.347657 14.625-21.671875 15.433594-34.726563l6.824219-110.035156zm0 0" fill="#757574"/><path d="m322.652344 473.121094c0-25.265625-18.289063-46.34375-42.324219-50.683594-1.816406-8.808594-4.898437-17.261719-9.140625-25.144531-.984375 1.195312-2.019531 2.355469-3.109375 3.46875l-16.734375 17.097656c-9.960938 10.175781-15.539062 23.851563-15.539062 38.09375h-6.058594c-13.386719 0-24.238282 10.851563-24.238282 24.238281 0 13.382813 10.851563 24.234375 24.238282 24.234375h82.261718c6.667969-8.683593 10.644532-19.535156 10.644532-31.304687zm0 0" fill="#565656"/><path d="m429.699219 480.1875c0-12.945312-10.152344-23.519531-22.933594-24.199219-.03125-.003906-.0625-.003906-.09375-.003906-.402344-.019531-.804687-.03125-1.210937-.03125h-6.058594c0-14.242187-5.578125-27.917969-15.539063-38.097656l-16.734375-17.09375c-9.148437-9.347657-14.625-21.671875-15.433594-34.726563l-6.824218-110.035156h-26.257813l6.824219 110.035156c.808594 13.054688 6.289062 25.378906 15.433594 34.726563l16.734375 17.097656c9.960937 10.175781 15.539062 23.851563 15.539062 38.09375h6.058594c13.386719 0 24.238281 10.851563 24.238281 24.238281 0 5.019532-4.070312 9.085938-9.089844 9.085938h-164.605468c-10.742188 0-19.84375-6.988282-23.023438-16.660156-.785156 2.382812-1.214844 4.925781-1.214844 7.574218 0 13.382813 10.851563 24.234375 24.238282 24.234375h175.714844c13.386718 0 24.238281-10.851562 24.238281-24.238281zm0 0" fill="#565656"/><path d="m317.601562 256h54.535157v-22.21875h-13.128907v-14.136719h-82.808593v14.136719h-13.128907v22.21875zm0 0" fill="#757574"/><path d="m359.007812 233.78125v-14.136719h-15.148437v10.097657c0 5.578124-4.519531 10.101562-10.097656 10.101562h-44.433594s-13.148437 0-26.257813 0v16.15625h109.066407v-22.21875zm0 0" fill="#565656"/><path d="m352.949219 184.300781c0 19.519531-15.828125 35.34375-35.347657 35.34375-19.519531 0-35.34375-15.824219-35.34375-35.34375s15.824219-35.347656 35.34375-35.347656c19.519532 0 35.347657 15.828125 35.347657 35.347656zm0 0" fill="#757574"/><path d="m330.367188 151.339844c1.535156 3.960937 2.382812 8.261718 2.382812 12.761718 0 19.523438-15.824219 35.347657-35.34375 35.347657-4.503906 0-8.804688-.851563-12.765625-2.386719 5.121094 13.210938 17.941406 22.582031 32.960937 22.582031 19.523438 0 35.347657-15.824219 35.347657-35.34375 0-15.019531-9.371094-27.839843-22.582031-32.960937zm0 0" fill="#565656"/><path d="m191.371094 180.261719 9.339844 143.523437c1.140624 17.507813 8.535156 34.023438 20.835937 46.53125l19.523437 19.855469c13.453126 13.679687 20.988282 32.097656 20.988282 51.28125v.359375h9.089844c17.292968 0 31.308593 14.015625 31.308593 31.304688 0 17.292968-14.015625 31.308593-31.308593 31.308593h-232.265626c-17.292968 0-31.308593-14.015625-31.308593-31.308593 0-17.289063 14.015625-31.304688 31.308593-31.304688h9.085938c0-19.398438 7.707031-38 21.421875-51.71875l19.519531-19.515625c12.660156-12.660156 20.234375-29.523437 21.292969-47.398437l8.457031-142.921876h72.710938zm0 0" fill="#fff0ca"/><path d="m272.824219 504.378906c16.511719-.871094 29.628906-14.53125 29.628906-31.257812 0-17.292969-14.015625-31.308594-31.304687-31.308594h-9.089844v-.359375c0-19.183594-7.535156-37.601563-20.988282-51.28125l-19.523437-19.851563c-12.300781-12.511718-19.699219-29.023437-20.835937-46.53125l-9.34375-143.527343h-31.304688l9.34375 143.527343c1.136719 17.507813 8.53125 34.019532 20.832031 46.53125l19.523438 19.851563c13.453125 13.679687 20.992187 32.097656 20.992187 51.28125v.359375h9.089844c17.289062 0 31.304688 14.015625 31.304688 31.308594v1.007812c0 4.464844-3.617188 8.082032-8.078126 8.082032h-224.1875c-13.378906 0-24.789062-8.394532-29.269531-20.199219-1.34375 3.535156-2.035156 7.328125-2.035156 11.109375 0 17.289062 14.015625 31.304687 31.304687 31.304687h232.546876c.3125 0 .90625-.027343 1.21875-.039062.058593 0 .117187-.003907.175781-.007813 16.511719-.871094-.058594.003906 0 0zm0 0" fill="#f2daaa"/><path d="m118.660156 131.785156h-16.15625v19.1875h-17.167968v29.289063h139.359374v-29.289063h-17.167968v-19.1875zm0 0" fill="#fff0ca"/><path d="m207.527344 150.972656v-19.1875h-15.148438v22.21875c0 5.578125-4.519531 10.097656-10.097656 10.097656h-96.945312v16.160157h139.359374v-29.285157h-17.167968zm0 0" fill="#f2daaa"/><path d="m118.660156 79.273438h-26.257812v14.136718l26.257812 18.179688v20.195312h72.710938v-20.195312l26.253906-18.179688v-14.136718zm0 0" fill="#fff0ca"/><path d="m187.332031 79.273438v9.089843l-23.648437 16.371094c-1.632813 1.128906-2.609375 2.992187-2.609375 4.980469v1.875c0 3.347656-2.710938 6.058594-6.058594 6.058594h-36.355469v14.136718h72.710938v-20.195312l26.253906-18.179688v-14.136718zm0 0" fill="#f2daaa"/><path d="m175.210938 27.769531c0 11.15625-9.039063 20.199219-20.195313 20.199219s-20.195313-9.042969-20.195313-20.199219c0-11.152343 9.039063-20.195312 20.195313-20.195312s20.195313 9.042969 20.195313 20.195312zm0 0" fill="#fff0ca"/><path d="m161.964844 8.828125c.796875 2.167969 1.253906 4.503906 1.253906 6.949219 0 11.15625-9.042969 20.199218-20.195312 20.199218-2.445313 0-4.78125-.457031-6.949219-1.253906 2.835937 7.722656 10.234375 13.246094 18.941406 13.246094 11.15625 0 20.195313-9.042969 20.195313-20.199219 0-8.707031-5.519532-16.105469-13.246094-18.941406zm0 0" fill="#f2daaa"/><path d="m155.015625 79.273438h36.355469v-21.207032c0-5.578125-4.523438-10.097656-10.097656-10.097656h-52.515626c-5.574218 0-10.097656 4.519531-10.097656 10.097656v21.207032zm0 0" fill="#fff0ca"/><path d="m181.273438 47.96875h-5.050782v8.078125c0 5.578125-4.519531 10.097656-10.097656 10.097656h-47.464844v13.128907h72.710938v-21.207032c0-5.578125-4.523438-10.097656-10.097656-10.097656zm0 0" fill="#f2daaa"/><path d="m406.523438 448.394531c-1.632813-13.476562-7.613282-25.992187-17.25-35.832031l-16.734376-17.097656c-7.871093-8.042969-12.589843-18.664063-13.285156-29.898438l-6.328125-101.992187h19.210938c4.183593 0 7.574219-3.390625 7.574219-7.574219v-22.21875c0-4.179688-3.390626-7.570312-7.574219-7.570312h-5.554688v-6.566407c0-4.183593-3.390625-7.574219-7.574219-7.574219h-8.71875c6.375-7.492187 10.234376-17.1875 10.234376-27.769531 0-23.667969-19.253907-42.917969-42.921876-42.917969-23.664062 0-42.917968 19.25-42.917968 42.917969 0 10.585938 3.859375 20.277344 10.234375 27.769531h-8.71875c-4.183594 0-7.574219 3.390626-7.574219 7.574219v6.566407h-5.554688c-4.183593 0-7.574218 3.390624-7.574218 7.570312v22.21875c0 4.183594 3.390625 7.574219 7.574218 7.574219h19.207032l-6.328125 101.992187c-.695313 11.238282-5.410157 21.855469-13.28125 29.898438l-4.464844 4.5625c-3.265625-5.4375-7.175781-10.535156-11.730469-15.164063l-19.523437-19.855469c-11.023438-11.207031-17.65625-26.023437-18.679688-41.710937l-8.816406-135.460937h25.242187c4.183594 0 7.574219-3.394532 7.574219-7.574219v-29.289063c0-4.183594-3.390625-7.574218-7.574219-7.574218h-9.59375v-11.613282c0-4.179687-3.390624-7.570312-7.574218-7.570312h-8.582032v-8.65625l22.992188-15.917969c2.042969-1.414063 3.261719-3.742187 3.261719-6.230469v-14.136718c0-4.183594-3.390625-7.574219-7.574219-7.574219h-18.679688v-13.632813c0-9.746094-7.929687-17.671875-17.671874-17.671875h-1.535157c1.941407-3.789062 3.046875-8.078125 3.046875-12.625 0-15.308593-12.457031-27.769531-27.769531-27.769531s-27.769531 12.460938-27.769531 27.769531c0 4.546875 1.101562 8.835938 3.046875 12.625h-1.535157c-9.746093 0-17.671874 7.925781-17.671874 17.671875v13.632813h-18.683594c-4.183594 0-7.574219 3.390625-7.574219 7.574219v14.136718c0 2.488282 1.21875 4.816406 3.265625 6.230469l22.992188 15.917969v8.65625h-8.582032c-4.183594 0-7.574218 3.390625-7.574218 7.570312v11.613282h-9.59375c-4.183594 0-7.574219 3.390624-7.574219 7.574218v29.289063c0 4.179687 3.390625 7.574219 7.574219 7.574219h98.9375l8.878906 136.445312c1.257812 19.3125 9.425781 37.546875 22.996094 51.347656l19.523437 19.855469c5.769531 5.867187 10.285156 12.640625 13.457031 19.988281.117188.316406.25.628906.410156.929688 2.339844 5.664062 3.867188 11.660156 4.542969 17.835937h-56.652343c-4.183594 0-7.574219 3.394531-7.574219 7.574219 0 4.183594 3.390625 7.574219 7.574219 7.574219h73.71875c13.085937 0 23.734374 10.648437 23.734374 23.734375 0 13.085937-10.648437 23.730468-23.734374 23.730468h-232.265626c-13.085937 0-23.734374-10.644531-23.734374-23.730468 0-13.085938 10.648437-23.734375 23.734374-23.734375h123.203126c4.179687 0 7.574218-3.390625 7.574218-7.574219 0-4.179688-3.394531-7.574219-7.574218-7.574219h-106.09375c1.675781-14.644531 8.175781-28.207031 18.757812-38.785156l19.515625-19.519531c13.984375-13.984375 22.332031-32.5625 23.496094-52.304688l6.300781-106.441406c.246094-4.175781-2.9375-7.761719-7.113281-8.007812-4.183594-.238282-7.761719 2.9375-8.007813 7.113281l-6.300781 106.441406c-.945313 16.039063-7.726563 31.128906-19.085937 42.488281l-19.519532 19.519532c-13.445312 13.445312-21.5625 30.796874-23.292968 49.5h-1.863282c-21.4375 0-38.878906 17.441406-38.878906 38.878906s17.441406 38.878906 38.878906 38.878906h366.582032c8.480468 0 16.46875-3.304688 22.5-9.324219 6.003906-6.015625 9.3125-14.003906 9.3125-22.484375 0-17.1875-13.699219-31.230468-30.75-31.796875zm-264.132813-420.625c0-6.960937 5.664063-12.621093 12.625-12.621093s12.621094 5.664062 12.621094 12.621093c0 6.960938-5.664063 12.625-12.621094 12.625-6.960937 0-12.625-5.664062-12.625-12.625zm-16.15625 30.296875c0-1.390625 1.132813-2.523437 2.523437-2.523437h52.515626c1.390624 0 2.523437 1.132812 2.523437 2.523437v13.632813h-57.5625zm-26.257813 31.378906v-2.597656h110.074219v2.597656l-22.992187 15.917969c-2.042969 1.414063-3.265625 3.742188-3.265625 6.226563v12.625h-57.558594v-12.625c0-2.484375-1.222656-4.8125-3.265625-6.226563zm-7.066406 69.101563h9.59375c4.179688 0 7.574219-3.390625 7.574219-7.574219v-11.613281h89.875v11.613281c0 4.183594 3.390625 7.574219 7.574219 7.574219h9.59375v14.140625h-124.210938zm196.921875 25.753906c0-15.3125 12.457031-27.773437 27.769531-27.773437s27.773438 12.460937 27.773438 27.773437-12.460938 27.769531-27.773438 27.769531-27.769531-12.457031-27.769531-27.769531zm-19.1875 57.054688h5.554688c4.183593 0 7.574219-3.390625 7.574219-7.574219v-6.5625h67.660156v6.5625c0 4.183594 3.390625 7.574219 7.574218 7.574219h5.554688v7.070312h-93.917969zm146.605469 250.609375c-3.160156 3.152344-7.347656 4.886718-11.789062 4.886718h-103.546876c5.082032-6.570312 8.117188-14.800781 8.117188-23.730468 0-3.308594-.417969-6.523438-1.203125-9.59375h13.824219c4.183594 0 7.574218-3.390625 7.574218-7.574219s-3.390624-7.574219-7.574218-7.574219h-21.53125c-7.136719-8.628906-17.921875-14.136718-29.96875-14.136718h-1.832032c-.597656-6.738282-2.03125-13.308594-4.238281-19.589844l8.414063-8.589844c10.414062-10.644531 16.65625-24.695312 17.574218-39.558594l6.386719-102.929687h40.296875l6.382813 102.929687c.921875 14.863282 7.164062 28.914063 17.578125 39.558594l16.734375 17.097656c6.835937 6.984375 11.226562 15.746094 12.761719 25.21875h-33.210938c-4.183594 0-7.574219 3.390625-7.574219 7.574219s3.390625 7.574219 7.574219 7.574219h47.460938c9.191406 0 16.664062 7.476562 16.664062 16.664062 0 4.441406-1.738281 8.628906-4.875 11.773438zm0 0"/></svg>