<svg height="511pt" viewBox="-29 0 511 511.99959" width="511pt" xmlns="http://www.w3.org/2000/svg"><path d="m383.472656 273.160156h-81.730468s27.746093 33.332032-15.460938 101.050782c-.417969-.414063 113.066406-.414063 112.652344 0-43.210938-67.71875-15.460938-101.050782-15.460938-101.050782zm0 0" fill="#f1b70b"/><path d="m383.472656 273.160156h-81.730468s14.0625 16.902344 6.570312 51.078125c29.101562 1.914063 51.121094-4.285156 66.730469-11.898437-2.371094-26.203125 8.429687-39.179688 8.429687-39.179688zm0 0" fill="#e8a900"/><path d="m415.867188 421.621094h-146.519532v-37.695313c0-12.136719 9.835938-21.972656 21.96875-21.972656h102.582032c12.132812 0 21.96875 9.835937 21.96875 21.972656zm0 0" fill="#f6ca56"/><path d="m427.769531 512h-196.488281v-50.875c0-28.601562 23.1875-51.789062 51.789062-51.789062h119.074219c28.601563 0 51.789063 23.1875 51.789063 51.789062v24.710938c0 14.449218-11.714844 26.164062-26.164063 26.164062zm0 0" fill="#fad989"/><path d="m195.257812 219.367188h-120.949218s40.363281 74.144531 0 172.417968h120.949218c-40.363281-98.273437 0-172.417968 0-172.417968zm0 0" fill="#f6ca56"/><path d="m74.308594 219.367188s13.199218 24.253906 16.953125 63.394531c32.265625-9.917969 68.683593-12.542969 88.726562-13.210938 5-31.3125 15.269531-50.1875 15.269531-50.1875h-120.949218zm0 0" fill="#f1b70b"/><path d="m162.117188 48.558594c4.066406-5.335938 6.347656-11.914063 6.039062-19-.6875-15.632813-14.328125-28.527344-31.238281-29.496094-19.414063-1.117188-35.535157 13.09375-35.535157 30.777344 0 6.660156 2.289063 12.824218 6.179688 17.863281 3.65625 4.742187 2.921875 11.257813-1.464844 15.441406-23.625 22.507813-53.261718 42.246094-53.261718 80.878907 0 41.785156 36.6875 75.660156 81.945312 75.660156s81.949219-33.875 81.949219-75.660156c0-41.703126-29.667969-58.410157-53.300781-80.917969-4.433594-4.222657-4.976563-10.742188-1.3125-15.546875zm0 0" fill="#fad989"/><path d="m199.019531 243.496094h-128.476562c-13.324219 0-24.128907-10.804688-24.128907-24.128906 0-13.328126 10.804688-24.132813 24.128907-24.132813h128.476562c13.328125 0 24.132813 10.804687 24.132813 24.132813 0 13.324218-10.804688 24.128906-24.132813 24.128906zm0 0" fill="#ffeab7"/><path d="m223.152344 421.621094h-176.738282v-35.539063c0-13.324219 10.804688-24.128906 24.128907-24.128906h128.476562c13.328125 0 24.132813 10.804687 24.132813 24.128906zm0 0" fill="#fad989"/><path d="m240.332031 512h-211.097656c-15.871094 0-28.734375-12.867188-28.734375-28.734375v-17.050781c0-31.414063 25.464844-56.878906 56.878906-56.878906h154.808594c31.414062 0 56.878906 25.464843 56.878906 56.878906v17.050781c0 15.867187-12.867187 28.734375-28.734375 28.734375zm0 0" fill="#ffeab7"/><path d="m404.75 228.039062c0 34.324219-27.824219 62.144532-62.144531 62.144532-34.320313 0-62.144531-27.820313-62.144531-62.144532 0-34.320312 27.824218-62.140624 62.144531-62.140624 34.320312 0 62.144531 27.820312 62.144531 62.140624zm0 0" fill="#f6ca56"/><g fill="#454545"><path d="m183.621094 159.761719c-4.269532 0-7.726563-3.460938-7.726563-7.726563v-12.828125c0-4.265625 3.457031-7.726562 7.726563-7.726562 4.269531 0 7.726562 3.460937 7.726562 7.726562v12.828125c0 4.265625-3.460937 7.726563-7.726562 7.726563zm0 0"/><path d="m85.945312 159.761719c-4.269531 0-7.726562-3.460938-7.726562-7.726563v-12.828125c0-4.265625 3.457031-7.726562 7.726562-7.726562 4.265626 0 7.726563 3.460937 7.726563 7.726562v12.828125c0 4.265625-3.460937 7.726563-7.726563 7.726563zm0 0"/><path d="m140.058594 144.316406c-1.730469 2.539063-4.253906 2.847656-5.277344 2.847656s-3.589844-.277343-5.277344-2.847656c-2.34375-3.566406-7.132812-4.558594-10.699218-2.214844-3.566407 2.339844-4.558594 7.132813-2.214844 10.699219 4.035156 6.144531 10.835937 9.816407 18.191406 9.816407s14.15625-3.671876 18.195312-9.816407c2.339844-3.566406 1.347657-8.359375-2.21875-10.699219-1.304687-.859374-7.085937-3.085937-10.699218 2.214844zm0 0"/></g></svg>