<svg height="512" viewBox="0 0 512 512" width="512" xmlns="http://www.w3.org/2000/svg"><path d="m256 248h48a197.2 197.2 0 0 0 10.119 62.358l5.881 17.642v24h-80v-24l5.881-17.642a197.2 197.2 0 0 0 10.119-62.358z" fill="#ec9e15"/><path d="m304.5 260.322c-.257-4.1-.5-8.205-.5-12.322h-48c0 4.117-.239 8.221-.5 12.322a31.531 31.531 0 0 0 48.992 0z" fill="#dc9315"/><path d="m232 344h96v40h-96z" fill="#dc9315"/><path d="m224 376h112v32h-112z" fill="#ec9e15"/><circle cx="280" cy="232" fill="#ec9e15" r="32"/><path d="m336 142.4-46.115 41.5a25.5 25.5 0 0 0 -2.854 34.886 25.5 25.5 0 0 0 37.068 2.939l43.901-37.725h8a80 80 0 0 0 64-32h48v-128h-151.163a48 48 0 0 0 -29.985 10.518l-48.837 39.07a48 48 0 0 0 -18.015 37.482v68.93a28 28 0 0 0 28 28 28 28 0 0 0 28-28v-60l24-20.571v28.571z" fill="#fad7be"/><path d="m24 456h464v32h-464z" fill="#ebebeb"/><path d="m64 456h128v32h-128z" fill="#b9b9b9"/><path d="m320 456h128v32h-128z" fill="#b9b9b9"/><path d="m192 432h-136.149l-7.851-8a87.519 87.519 0 0 1 29.478-92.383l34.522-27.617h-40l-3.6 3.6a35.185 35.185 0 0 1 -44.4 4.4v-24l27.351-27.351a110.246 110.246 0 0 0 20.649-28.649l-32-40 48 8a104 104 0 0 1 104 104z" fill="#4298d1"/><g fill="#3b84bc"><path d="m166.942 374.497h15.998v64.888h-15.998z" transform="matrix(.707 -.707 .707 .707 -236.512 242.893)"/><path d="m168.001 334.059h15.998v67.882h-15.998z" transform="matrix(.707 -.707 .707 .707 -208.666 232.235)"/><path d="m166.942 294.497h15.998v64.888h-15.998z" transform="matrix(.707 -.707 .707 .707 -179.943 219.461)"/><path d="m164.001 250.886h15.998v72.896h-15.998z" transform="matrix(.64 -.768 .768 .64 -158.847 235.517)"/><path d="m40 424h160v32h-160z"/></g><path d="m360 416h16v16h-16z" fill="#fbeebd"/><path d="m360 384h16v16h-16z" fill="#fbeebd"/><path d="m360 336h16v32h-16z" fill="#fbeebd"/><path d="m336.218 142.682-16.218-14.682v-28.565l32-27.435v32l14.21 11.399z" fill="#eeccb6"/><path d="m160 424h-16v-132.223a49.611 49.611 0 0 0 -27.578-44.621l7.156-14.312a65.525 65.525 0 0 1 36.422 58.933z" fill="#3b84bc"/><path d="m72.41 429.062a76.131 76.131 0 0 1 28.113-86.453l14.829-10.589 9.3 13.023-14.828 10.59a60.2 60.2 0 0 0 -22.234 68.367z" fill="#3b84bc"/><circle cx="88" cy="264" fill="#3b84bc" r="8"/></svg>